<svg xmlns="http://www.w3.org/2000/svg" width="408.379" height="1065.58" viewBox="0 0 408.379 1065.58">
  <path id="Union_2" data-name="Union 2" d="M184.326,1056.28,7.08,875.127a28.865,28.865,0,0,1-5.127-7.69A22.933,22.933,0,0,1,0,857.793a23.723,23.723,0,0,1,3.173-12.084,23.3,23.3,0,0,1,8.667-8.667,24.2,24.2,0,0,1,12.329-3.174,23.062,23.062,0,0,1,17.334,7.08L202.75,1006.06,363.769,840.947a23.866,23.866,0,0,1,17.579-7.08,24.2,24.2,0,0,1,12.329,3.174,23.305,23.305,0,0,1,8.667,8.667,24.695,24.695,0,0,1-3.907,29.418L220.947,1056.28a24.239,24.239,0,0,1-8.3,6.225,23.652,23.652,0,0,1-9.766,2.075Q192.383,1064.58,184.326,1056.28ZM67.282,700q-49.9-42.042-57.764-126.807Q3.366,506.2,1.486,439.38t.342-135.352Q4.05,235.5,10.2,163.379q7.178-80.322,57.08-121.85T204,0q86.816,0,136.718,41.529T397.8,163.379q6.152,72.12,8.374,140.649t.342,135.352q-1.881,66.821-8.033,133.813Q390.622,657.959,340.719,700T204,742.041Q117.184,742.041,67.282,700ZM107.614,84.253Q72.41,110.4,67.966,163.379q-5.812,71.778-8.033,140.307t-.342,135.352q1.881,66.821,8.032,134.155,5.127,57.422,40.161,84.253T204,684.277q61.181,0,96.215-26.831t40.5-84.253q5.812-67.334,7.691-134.155t-.341-135.352q-2.222-68.53-8.033-140.307-4.443-52.978-39.649-79.126T204,58.106Q142.819,58.106,107.614,84.253Zm62.145,124.886a33,33,0,1,1,33,33A33,33,0,0,1,169.759,209.138Z" transform="translate(0.5 0.5)" stroke="rgba(0,0,0,0)" stroke-miterlimit="10" stroke-width="1"/>
</svg>
