<svg xmlns="http://www.w3.org/2000/svg" xmlns:xlink="http://www.w3.org/1999/xlink" width="136" height="33" viewBox="0 0 136 33"><defs><style>.a{clip-path:url(#a);}.b{fill:#fff;}.c{fill:none;}.d{fill:url(#b);}</style><clipPath id="a"><rect width="136" height="33"/></clipPath><linearGradient id="b" y1="0.522" x2="1" y2="0.466" gradientUnits="objectBoundingBox"><stop offset="0" stop-color="#514192"/><stop offset="0.494" stop-color="#ed1c24"/><stop offset="1" stop-color="#de4197"/></linearGradient></defs><g class="a"><path class="b" d="M135,275.658a11.715,11.715,0,0,1,6.606,1.672q2.365,1.632,2.367,6.24v13.582H138.3v-12.93a4.509,4.509,0,0,0-.735-3.017q-.735-.778-3.018-.776l-4.568-.04v16.763h-5.671V275.658Z" transform="translate(-124.313 -264.457)"/><path class="b" d="M237.91,297.151a11.472,11.472,0,0,1-6.525-1.631q-2.405-1.631-2.407-6.2V275.656h5.669v13.173a3.878,3.878,0,0,0,.817,2.9,4.365,4.365,0,0,0,2.9.735l4.567-.042V275.656H248.6V297.15Z" transform="translate(-205.036 -264.456)"/><path class="b" d="M343.742,292.543h6.037v4.609h-7.71a19.757,19.757,0,0,1-4.3-.469,7.922,7.922,0,0,1-3.773-2.059,9.6,9.6,0,0,1-2.159-3.161,12.968,12.968,0,0,1-.978-3.733c0-.189-.008-.386-.02-.591s-.021-.4-.021-.592c0-.245.009-.489.021-.734s.034-.489.061-.733a11.745,11.745,0,0,1,.939-3.671,9.686,9.686,0,0,1,2.159-3.142,8.077,8.077,0,0,1,3.773-2.079,18.893,18.893,0,0,1,4.3-.491l7.709-.04v4.65h-6.037a.855.855,0,0,1-.264.041h-1.163a10.246,10.246,0,0,0-1.591.12,4.126,4.126,0,0,0-1.468.532,4.4,4.4,0,0,0-2.021,2.405,9.757,9.757,0,0,0-.509,3.141,9.417,9.417,0,0,0,.573,3.039,4.4,4.4,0,0,0,1.956,2.3,4.143,4.143,0,0,0,1.468.531,14.978,14.978,0,0,0,1.591.163h1.428Z" transform="translate(-283.578 -264.457)"/><rect class="b" width="5.913" height="32.67" transform="translate(70.624 0.026)"/><path class="b" d="M484.446,296.6a7.7,7.7,0,0,1-3.773-2.306,8.719,8.719,0,0,1-1.9-3.263,15.374,15.374,0,0,1-.715-3.751v-1.366a3.581,3.581,0,0,1,.042-.55,14.345,14.345,0,0,1,.712-3.611,8.748,8.748,0,0,1,1.857-3.16,7.6,7.6,0,0,1,3.773-2.344,17.719,17.719,0,0,1,4.424-.552l8.28-.039v4.486h-7.507a9.374,9.374,0,0,0-3.792.713q-1.428.675-1.509,3.365l12.807-.039v4.486H484.343q.081,2.814,1.428,3.427a9.522,9.522,0,0,0,3.833.611l7.545-.041v4.486H488.87a17.718,17.718,0,0,1-4.424-.55" transform="translate(-397.144 -264.457)"/><path class="b" d="M586.96,292.828h7.1v-4.445h-6.688a.371.371,0,0,1-.163.041h-.165a6.307,6.307,0,0,0-2.12.428,1.785,1.785,0,0,0-1.02,1.814q-.082,1.591.877,1.876a8.743,8.743,0,0,0,2.184.328Zm4.079-17.17a18.407,18.407,0,0,1,3.609.428,6.32,6.32,0,0,1,3.121,1.774,6.21,6.21,0,0,1,1.653,2.692,10.956,10.956,0,0,1,.468,3.182v13.42H584.635a6.712,6.712,0,0,1-5.057-1.814,6.445,6.445,0,0,1-1.591-5.038q.283-3.876,2.732-5.017a13.689,13.689,0,0,1,5.833-1.141l7.463-.042q.124-2.651-1.364-3.305a9.478,9.478,0,0,0-3.774-.65l-9.463-.042v-4.444Z" transform="translate(-474.201 -264.457)"/><rect class="b" width="5.957" height="21.494" transform="translate(129.969 11.2)"/><rect class="c" width="135.926" height="32.695"/><rect class="d" width="31" height="5" transform="translate(105)"/></g></svg>